<?xml version="1.0" standalone="no"?>
<!DOCTYPE svg PUBLIC "-//W3C//DTD SVG 20010904//EN"
 "http://www.w3.org/TR/2001/REC-SVG-20010904/DTD/svg10.dtd">
<svg version="1.0" xmlns="http://www.w3.org/2000/svg"
 width="24.000000pt" height="29.000000pt" viewBox="0 0 24.000000 29.000000"
 preserveAspectRatio="xMidYMid meet">

<g transform="translate(0.000000,29.000000) scale(0.100000,-0.100000)"
fill="#000000" stroke="none">
<path d="M22 268 c-7 -7 -12 -40 -12 -80 0 -54 3 -68 15 -68 12 0 15 14 15 65
l0 65 45 0 c43 0 45 -1 45 -29 0 -29 14 -41 51 -41 17 0 19 -8 19 -64 l0 -65
-42 -3 c-23 -2 -43 -9 -46 -15 -5 -17 89 -18 106 -1 7 7 12 44 12 98 0 84 -1
87 -33 118 -30 29 -38 32 -98 32 -37 0 -70 -5 -77 -12z m158 -43 c10 -12 10
-15 -4 -15 -9 0 -16 7 -16 15 0 8 2 15 4 15 2 0 9 -7 16 -15z"/>
<path d="M62 127 c-50 -51 -62 -100 -25 -105 16 -2 38 11 73 44 55 51 59 63
32 87 -26 24 -33 22 -80 -26z m68 -4 c0 -13 -53 -63 -67 -63 -19 0 -16 11 14
42 25 26 53 37 53 21z"/>
</g>
</svg>
